<svg width="78" height="65" viewBox="0 0 78 65" fill="none" xmlns="http://www.w3.org/2000/svg">
<path d="M32.9441 0C33.7516 2.43445 34.1553 4.46317 34.1553 6.08615C34.1553 7.54683 33.913 9.49439 33.4286 11.9288C22.6087 11.9288 17.1988 17.5281 17.1988 28.7266C17.1988 32.784 19.2981 35.0562 23.4969 35.5431C29.6335 36.03 32.7019 40.0062 32.7019 47.4719C32.7019 53.1523 31.3292 57.5343 28.5838 60.618C26 63.5393 21.236 65 14.2919 65C4.76398 65 0 58.5081 0 45.5243C0 32.5406 2.58385 21.7478 7.75155 13.1461C12.9193 4.38202 21.3168 0 32.9441 0ZM76.7888 0C77.5963 2.43445 78 4.46317 78 6.08615C78 7.54683 77.7578 9.49439 77.2733 11.9288C66.4534 11.9288 61.0435 17.5281 61.0435 28.7266C61.0435 32.784 63.1429 35.0562 67.3416 35.5431C73.4783 36.03 76.5466 40.0062 76.5466 47.4719C76.5466 53.1523 75.1739 57.5343 72.4286 60.618C69.8447 63.5393 65.0807 65 58.1366 65C48.6087 65 43.8447 58.5081 43.8447 45.5243C43.8447 32.5406 46.4286 21.7478 51.5963 13.1461C56.764 4.38202 65.1615 0 76.7888 0Z" fill="#004AAD"/>
</svg>
