<svg width="49" height="65" viewBox="0 0 49 65" fill="none" xmlns="http://www.w3.org/2000/svg">
<path d="M24.5 32.5C27.7304 32.5 30.8883 31.547 33.5743 29.7614C36.2603 27.9758 38.3538 25.4379 39.59 22.4686C40.8263 19.4993 41.1497 16.232 40.5195 13.0798C39.8893 9.9276 38.3337 7.03212 36.0494 4.75952C33.7652 2.48692 30.8548 0.939256 27.6865 0.312246C24.5181 -0.314763 21.234 0.00704094 18.2495 1.23696C15.265 2.46689 12.7141 4.54969 10.9193 7.22199C9.1246 9.89429 8.16667 13.0361 8.16667 16.25C8.17099 20.5585 9.89321 24.6892 12.9554 27.7357C16.0175 30.7823 20.1695 32.4957 24.5 32.5ZM24.5 5.41667C26.6536 5.41667 28.7589 6.05204 30.5495 7.24242C32.3402 8.4328 33.7359 10.1247 34.56 12.1043C35.3842 14.0838 35.5998 16.262 35.1797 18.3635C34.7595 20.4649 33.7225 22.3953 32.1996 23.9103C30.6768 25.4254 28.7366 26.4572 26.6243 26.8752C24.5121 27.2932 22.3227 27.0787 20.333 26.2587C18.3433 25.4388 16.6427 24.0502 15.4462 22.2687C14.2497 20.4872 13.6111 18.3926 13.6111 16.25C13.6111 13.3768 14.7583 10.6213 16.8004 8.58968C18.8425 6.55804 21.6121 5.41667 24.5 5.41667Z" fill="#004AAD"/>
<path d="M24.5 37.9167C18.0044 37.9238 11.7769 40.4942 7.18384 45.0639C2.59076 49.6335 0.00720532 55.8292 0 62.2917C0 63.01 0.286805 63.6988 0.79732 64.2067C1.30784 64.7147 2.00024 65 2.72222 65C3.4442 65 4.13661 64.7147 4.64712 64.2067C5.15764 63.6988 5.44444 63.01 5.44444 62.2917C5.44444 57.2636 7.45208 52.4415 11.0257 48.8861C14.5993 45.3307 19.4462 43.3333 24.5 43.3333C29.5538 43.3333 34.4007 45.3307 37.9743 48.8861C41.5479 52.4415 43.5556 57.2636 43.5556 62.2917C43.5556 63.01 43.8424 63.6988 44.3529 64.2067C44.8634 64.7147 45.5558 65 46.2778 65C46.9998 65 47.6922 64.7147 48.2027 64.2067C48.7132 63.6988 49 63.01 49 62.2917C48.9928 55.8292 46.4092 49.6335 41.8162 45.0639C37.2231 40.4942 30.9956 37.9238 24.5 37.9167Z" fill="#004AAD"/>
</svg>
