<svg width="59" height="59" viewBox="0 0 59 59" fill="none" xmlns="http://www.w3.org/2000/svg">
<path d="M46.7083 9.83333H44.0042C43.4336 7.05889 41.924 4.56598 39.7297 2.77477C37.5355 0.983555 34.7908 0.00357571 31.9583 0H27.0417C24.2092 0.00357571 21.4645 0.983555 19.2703 2.77477C17.076 4.56598 15.5664 7.05889 14.9958 9.83333H12.2917C9.03291 9.83724 5.90875 11.1335 3.60446 13.4378C1.30017 15.7421 0.00390348 18.8662 0 22.125V46.7083C0.00390348 49.9671 1.30017 53.0913 3.60446 55.3955C5.90875 57.6998 9.03291 58.9961 12.2917 59H46.7083C49.9671 58.9961 53.0913 57.6998 55.3955 55.3955C57.6998 53.0913 58.9961 49.9671 59 46.7083V22.125C58.9961 18.8662 57.6998 15.7421 55.3955 13.4378C53.0913 11.1335 49.9671 9.83724 46.7083 9.83333ZM27.0417 4.91667H31.9583C33.4782 4.92297 34.959 5.39871 36.1982 6.2788C37.4374 7.15889 38.3744 8.40035 38.881 9.83333H20.119C20.6256 8.40035 21.5626 7.15889 22.8018 6.2788C24.041 5.39871 25.5218 4.92297 27.0417 4.91667ZM12.2917 14.75H46.7083C48.6643 14.75 50.5402 15.527 51.9232 16.9101C53.3063 18.2932 54.0833 20.169 54.0833 22.125V29.5H4.91667V22.125C4.91667 20.169 5.69367 18.2932 7.07675 16.9101C8.45984 15.527 10.3357 14.75 12.2917 14.75ZM46.7083 54.0833H12.2917C10.3357 54.0833 8.45984 53.3063 7.07675 51.9232C5.69367 50.5402 4.91667 48.6643 4.91667 46.7083V34.4167H27.0417V36.875C27.0417 37.527 27.3007 38.1523 27.7617 38.6133C28.2227 39.0743 28.848 39.3333 29.5 39.3333C30.152 39.3333 30.7773 39.0743 31.2383 38.6133C31.6993 38.1523 31.9583 37.527 31.9583 36.875V34.4167H54.0833V46.7083C54.0833 48.6643 53.3063 50.5402 51.9232 51.9232C50.5402 53.3063 48.6643 54.0833 46.7083 54.0833Z" fill="#004AAD"/>
</svg>
