<svg width="60" height="61" viewBox="0 0 60 61" fill="none" xmlns="http://www.w3.org/2000/svg">
<path d="M30 0.5C24.0666 0.5 18.2664 2.25947 13.3329 5.55591C8.39943 8.85235 4.55426 13.5377 2.28363 19.0195C0.0129986 24.5013 -0.581101 30.5333 0.576455 36.3527C1.73401 42.1721 4.59123 47.5176 8.78681 51.7132C12.9824 55.9088 18.3279 58.766 24.1473 59.9235C29.9667 61.0811 35.9987 60.487 41.4805 58.2164C46.9623 55.9457 51.6477 52.1006 54.9441 47.1671C58.2405 42.2336 60 36.4334 60 30.5C59.9914 22.5461 56.8279 14.9205 51.2037 9.2963C45.5795 3.67207 37.9539 0.508603 30 0.5ZM55 30.5C55.003 35.3993 53.5574 40.1901 50.845 44.27L47.865 41.2875C47.6313 41.0532 47.5001 40.7359 47.5 40.405V38C47.5 36.0109 46.7098 34.1032 45.3033 32.6967C43.8968 31.2902 41.9891 30.5 40 30.5H32.5C31.837 30.5 31.2011 30.2366 30.7322 29.7678C30.2634 29.2989 30 28.663 30 28V26.75C30 26.4185 30.1317 26.1005 30.3661 25.8661C30.6005 25.6317 30.9185 25.5 31.25 25.5C32.9076 25.5 34.4973 24.8415 35.6694 23.6694C36.8415 22.4973 37.5 20.9076 37.5 19.25V16.75C37.5 16.4185 37.6317 16.1005 37.8661 15.8661C38.1005 15.6317 38.4185 15.5 38.75 15.5H42.1975C43.8535 15.4953 45.4408 14.8377 46.615 13.67L47.5575 12.7275C49.9155 15.0477 51.7879 17.8141 53.0657 20.8654C54.3435 23.9167 55.0011 27.1919 55 30.5ZM5.12251 32.9075L13.0175 40.8025C13.7123 41.5017 14.539 42.056 15.4496 42.4333C16.3603 42.8105 17.3368 43.0031 18.3225 43H25C25.6631 43 26.2989 43.2634 26.7678 43.7322C27.2366 44.2011 27.5 44.837 27.5 45.5V55.3725C21.7505 54.7856 16.381 52.2279 12.3023 48.1333C8.22367 44.0387 5.68696 38.6593 5.12251 32.9075ZM32.5 55.3725V45.5C32.5 43.5109 31.7098 41.6032 30.3033 40.1967C28.8968 38.7902 26.9891 38 25 38H18.3225C17.9938 38.0003 17.6683 37.9357 17.3646 37.81C17.0609 37.6843 16.7849 37.5 16.5525 37.2675L5.40751 26.1225C6.12295 22.0555 7.83686 18.2297 10.3954 14.9884C12.954 11.7472 16.2773 9.19177 20.067 7.55153C23.8567 5.9113 27.9943 5.23754 32.1087 5.5907C36.223 5.94387 40.1853 7.31291 43.64 9.575L43.08 10.135C42.8447 10.3671 42.528 10.498 42.1975 10.5H38.75C37.0924 10.5 35.5027 11.1585 34.3306 12.3306C33.1585 13.5027 32.5 15.0924 32.5 16.75V19.25C32.5 19.5815 32.3683 19.8995 32.1339 20.1339C31.8995 20.3683 31.5815 20.5 31.25 20.5C29.5924 20.5 28.0027 21.1585 26.8306 22.3306C25.6585 23.5027 25 25.0924 25 26.75V28C25 29.9891 25.7902 31.8968 27.1967 33.3033C28.6032 34.7098 30.5109 35.5 32.5 35.5H40C40.663 35.5 41.2989 35.7634 41.7678 36.2322C42.2366 36.7011 42.5 37.337 42.5 38V40.405C42.5047 42.061 43.1623 43.6483 44.33 44.8225L47.6725 48.165C43.6012 52.2505 38.239 54.7977 32.5 55.3725Z" fill="#004AAD"/>
</svg>
